Coordinates
version=1
nRows=9
nColumns=63
inDegrees=yes

Units are S.I. units (second, meters, Newtons, ...)
If the header above contains a line with 'inDegrees', this indicates whether rotational values are in degrees (yes) or radians (no).

endheader
time	pelvis_tilt	pelvis_list	pelvis_rotation	pelvis_tx	pelvis_ty	pelvis_tz	hip_flexion_r	hip_adduction_r	hip_rotation_r	knee_angle_r	knee_angle_r_beta	ankle_angle_r	subtalar_angle_r	mtp_angle_r	hip_flexion_l	hip_adduction_l	hip_rotation_l	knee_angle_l	knee_angle_l_beta	ankle_angle_l	subtalar_angle_l	mtp_angle_l	L5_S1_Flex_Ext	L5_S1_Lat_Bending	L5_S1_axial_rotation	L4_L5_Flex_Ext	L4_L5_Lat_Bending	L4_L5_axial_rotation	L3_L4_Flex_Ext	L3_L4_Lat_Bending	L3_L4_axial_rotation	L2_L3_Flex_Ext	L2_L3_Lat_Bending	L2_L3_axial_rotation	L1_L2_Flex_Ext	L1_L2_Lat_Bending	L1_L2_axial_rotation	L1_T12_Flex_Ext	L1_T12_Lat_Bending	L1_T12_axial_rotation	Abs_r3	Abs_r2	Abs_r1	Abs_t1	Abs_t2	neck_flexion	neck_bending	neck_rotation	arm_flex_r	arm_add_r	arm_rot_r	elbow_flex_r	pro_sup_r	wrist_flex_r	wrist_dev_r	arm_flex_l	arm_add_l	arm_rot_l	elbow_flex_l	pro_sup_l	wrist_flex_l	wrist_dev_l
      7.84200000	    -43.56921468	     -3.58348091	     -1.82827950	     -0.38202217	      1.12744912	      0.01706861	     90.19918113	     -5.02314985	     -6.49258594	     84.51372683	      1.47504280	     -1.87395064	     -8.12796079	      0.00000000	    100.17406739	     -0.96818006	     12.84909848	     64.67470404	      1.12878653	      9.05883191	    -10.89492094	      0.00000000	     -0.07789244	      0.72279097	      0.51935351	     -0.14465405	      0.96131199	      0.55181310	     -0.12796949	      1.75739396	      0.55181310	     -0.08902327	      1.75739396	      0.45443432	     -0.07233092	      1.47391534	      0.42197473	     -0.04450774	      1.11960321	      0.38951513	     -0.55637790	      8.17635597	      2.88848841	      0.00000000	      0.00000000	     -0.00000000	      0.00000000	      0.00000000	     60.87814532	    -13.00248911	     20.77038509	     41.56189309	     58.85436309	      0.00000000	      5.00000014	     64.70733959	     -4.14217572	     21.23983102	     29.34285929	     60.70694504	      0.00000000	      5.00000014
      7.85000000	    -43.44958769	     -3.91528698	     -1.92252680	     -0.38226776	      1.12697011	      0.01717210	     91.69446352	     -5.09795917	     -6.47389848	     87.32031436	      1.52402699	     -1.37706379	     -7.99405776	      0.00000000	     98.22833791	     -1.40115969	     12.97052539	     61.85753668	      1.07961768	      7.79358433	    -10.79422388	      0.00000000	     -0.07989834	      0.77539782	      0.52609049	     -0.14837921	      1.03127911	      0.55897114	     -0.13126498	      1.88530227	      0.55897114	     -0.09131581	      1.88530227	      0.46032917	     -0.07419360	      1.58119124	      0.42744852	     -0.04565391	      1.20109123	      0.39456786	     -0.57070586	      8.77145526	      2.92595745	      0.00000000	      0.00000000	     -0.00000000	      0.00000000	      0.00000000	     61.10244594	    -12.92868727	     21.13589380	     41.23974439	     58.93089050	      0.00000000	      5.00000014	     64.69642810	     -4.12468785	     21.16620025	     29.00786355	     60.73564053	      0.00000000	      5.00000014
      7.85800000	    -43.32795101	     -4.03930825	     -1.72669914	     -0.38242488	      1.12633346	      0.01669785	     93.31226211	     -5.54735248	     -6.23355366	     90.16336142	      1.57364752	     -0.55390094	     -7.55309828	      0.00000000	     96.25709674	     -1.56042273	     12.79659614	     59.10412400	      1.03156157	      6.32141170	    -10.85659516	      0.00000000	     -0.07691747	      0.80294157	      0.47850868	     -0.14284344	      1.06791229	      0.50841547	     -0.12636771	      1.95227213	      0.50841547	     -0.08790898	      1.95227213	      0.41869509	     -0.07142556	      1.63735845	      0.38878830	     -0.04395064	      1.24375649	      0.35888151	     -0.54941381	      9.08303561	      2.66132171	      0.00000000	      0.00000000	     -0.00000000	      0.00000000	      0.00000000	     61.38007019	    -12.86212822	     21.77397121	     40.76096424	     59.04508359	      0.00000000	      5.00000014	     64.72471607	     -4.10361355	     21.05784575	     28.62038776	     60.76177862	      0.00000000	      5.00000014
      7.86700000	    -43.23355721	     -4.19061071	     -1.72773884	     -0.38244125	      1.12581975	      0.01644446	     94.94816318	     -5.79560209	     -6.06414817	     92.77239539	      1.61918375	      0.35709409	     -7.19935422	      0.00000000	     94.28379721	     -1.92887985	     12.67427372	     56.43950045	      0.98505511	      5.03713961	    -10.72253773	      0.00000000	     -0.07535372	      0.83251625	      0.46145006	     -0.13993940	      1.10724662	      0.49029069	     -0.12379863	      2.02418002	      0.49029069	     -0.08612177	      2.02418002	      0.40376880	     -0.06997347	      1.69766715	      0.37492817	     -0.04305712	      1.28956768	      0.34608754	     -0.53824410	      9.41759037	      2.56644680	      0.00000000	      0.00000000	     -0.00000000	      0.00000000	      0.00000000	     61.58897934	    -12.76850145	     22.27449027	     40.43429119	     59.13390787	      0.00000000	      5.00000014	     64.72392264	     -4.12799359	     20.95299142	     28.30317672	     60.77838901	      0.00000000	      5.00000014
      7.87500000	    -43.14735327	     -4.25086589	     -1.77223965	     -0.38233536	      1.12544113	      0.01619606	     96.62494951	     -6.03151190	     -5.87270144	     95.21201797	      1.66176320	      1.46561475	     -6.81863830	      0.00000000	     92.31503610	     -2.34617265	     12.45071486	     53.88095172	      0.94040001	      3.81084341	    -10.50125996	      0.00000000	     -0.07573217	      0.85141351	      0.45263827	     -0.14064221	      1.13237997	      0.48092816	     -0.12442038	      2.07012681	      0.48092816	     -0.08655430	      2.07012681	      0.39605849	     -0.07032489	      1.73620243	      0.36776860	     -0.04327336	      1.31883953	      0.33947870	     -0.54094732	      9.63135991	      2.51743828	      0.00000000	      0.00000000	     -0.00000000	      0.00000000	      0.00000000	     61.77740551	    -12.65809155	     22.74402357	     40.14326979	     59.20557235	      0.00000000	      5.00000014	     64.69872052	     -4.16455775	     20.83368965	     28.06297614	     60.77423220	      0.00000000	      5.00000014
      7.88300000	    -43.08451208	     -4.26270494	     -1.88107034	     -0.38209905	      1.12519916	      0.01596573	     98.32213002	     -6.20470573	     -5.67616001	     97.44870885	      1.70080082	      2.71444822	     -6.47946366	      0.00000000	     90.37853066	     -2.82006661	     12.17050501	     51.44217107	      0.89783526	      2.68495110	    -10.23033857	      0.00000000	     -0.07491991	      0.86428864	      0.45461829	     -0.13913377	      1.14950389	      0.48303194	     -0.12308593	      2.10143140	      0.48303194	     -0.08562597	      2.10143140	      0.39779101	     -0.06957063	      1.76245739	      0.36937736	     -0.04280924	      1.33878310	      0.34096372	     -0.53514545	      9.77700595	      2.52845056	      0.00000000	      0.00000000	     -0.00000000	      0.00000000	      0.00000000	     61.92789879	    -12.52707113	     23.14636931	     39.89872007	     59.26536689	      0.00000000	      5.00000014	     64.63930362	     -4.21469344	     20.69938463	     27.90365907	     60.76043928	      0.00000000	      5.00000014
      7.89200000	    -43.06499992	     -4.43885775	     -2.27241607	     -0.38177093	      1.12526503	      0.01593918	     99.98374242	     -6.12527221	     -5.78587466	     99.35699996	      1.73410678	      3.69321839	     -6.44597367	      0.00000000	     88.53394807	     -3.55167645	     12.15010666	     49.17693413	      0.85829942	      1.77757825	     -9.79626339	      0.00000000	     -0.07502032	      0.90215912	      0.51528409	     -0.13932024	      1.19987162	      0.54748934	     -0.12325088	      2.19350968	      0.54748934	     -0.08574072	      2.19350968	      0.45087358	     -0.06966387	      1.83968287	      0.41866832	     -0.04286661	      1.39744447	      0.38646307	     -0.53586264	     10.20540436	      2.86585551	      0.00000000	      0.00000000	     -0.00000000	      0.00000000	      0.00000000	     62.05594017	    -12.44540957	     23.31047503	     39.75262931	     59.26767581	      0.00000000	      5.00000014	     64.51544312	     -4.22191304	     20.63436367	     27.88371928	     60.72488775	      0.00000000	      5.00000014
      7.90000000	    -43.04544256	     -4.46109287	     -2.53233630	     -0.38130757	      1.12549699	      0.01586972	    101.66072816	     -6.13492380	     -5.72602198	    101.12040681	      1.76488404	      4.93094665	     -6.47067471	      0.00000000	     86.70647972	     -4.15596001	     11.91244877	     47.00885193	      0.82045924	      0.97861690	     -9.40293138	      0.00000000	     -0.07429438	      0.91733360	      0.54450216	     -0.13797209	      1.22005368	      0.57853355	     -0.12205824	      2.23040491	      0.57853355	     -0.08491105	      2.23040491	      0.47643939	     -0.06898976	      1.87062667	      0.44240801	     -0.04245181	      1.42094974	      0.40837662	     -0.53067733	     10.37706112	      3.02835769	      0.00000000	      0.00000000	     -0.00000000	      0.00000000	      0.00000000	     62.15661565	    -12.27933906	     23.53448705	     39.54387399	     59.27439398	      0.00000000	      5.00000014	     64.35750606	     -4.28545943	     20.52397288	     27.84625913	     60.67503359	      0.00000000	      5.00000014
      7.90800000	    -43.01464165	     -4.36717157	     -2.76334114	     -0.38075298	      1.12583621	      0.01582925	    103.31842214	     -6.13769562	     -5.59135722	    102.69423465	      1.79235252	      6.32449049	     -6.52338224	      0.00000000	     84.94421539	     -4.68454549	     11.53824544	     45.07063797	      0.78663103	      0.26337790	     -9.14408517	      0.00000000	     -0.07495182	      0.91995851	      0.56218826	     -0.13919303	      1.22354482	      0.59732502	     -0.12313835	      2.23678713	      0.59732502	     -0.08566244	      2.23678713	      0.49191473	     -0.06960026	      1.87597940	      0.45677796	     -0.04282747	      1.42501574	      0.42164119	     -0.53537338	     10.40675469	      3.12672243	      0.00000000	      0.00000000	     -0.00000000	      0.00000000	      0.00000000	     62.26409688	    -12.01713666	     23.77451642	     39.26658304	     59.31305710	      0.00000000	      5.00000014	     64.20346971	     -4.42003952	     20.36721196	     27.83590215	     60.64676376	      0.00000000	      5.00000014
